<?xml version="1.0" encoding="UTF-8"?>
<svg xmlns="http://www.w3.org/2000/svg" xmlns:xlink="http://www.w3.org/1999/xlink" width="510px" height="510px" viewBox="0 0 510 510" version="1.1">
<g id="surface1">
<path style=" stroke:none;fill-rule:nonzero;fill:rgb(0%,0%,0%);fill-opacity:1;" d="M 190 133.550781 C 181.699219 135.699219 174.800781 140.199219 170.351562 146.398438 C 166.800781 151.398438 165.148438 154.699219 163.949219 159.398438 C 162.898438 163.601562 162.75 166.648438 163.5 171.199219 C 163.75 172.851562 164.199219 176.148438 164.5 178.5 C 164.800781 180.851562 165.25 184.199219 165.5 186 C 165.75 187.800781 166.199219 191.25 166.5 193.75 C 167.148438 198.898438 167.851562 204.449219 168.5 208.75 C 168.75 210.398438 169.148438 213.449219 169.449219 215.5 C 169.898438 218.851562 170.148438 221.050781 171.300781 230.148438 C 171.648438 233.050781 173.648438 235.550781 178.148438 238.601562 C 179.75 239.699219 182.949219 242 185.25 243.648438 C 199.75 254.449219 201.601562 255.398438 203.800781 252.949219 C 204.648438 252 204.800781 250.800781 205 241.75 C 205.148438 236.148438 205.449219 231.398438 205.648438 231.199219 C 206.300781 230.550781 212.148438 229.898438 230.648438 228.550781 C 234 228.300781 237.199219 227.949219 237.75 227.800781 C 238.300781 227.699219 241.601562 227.449219 245.148438 227.300781 L 251.5 227.050781 L 251.199219 228.949219 C 250.648438 232.300781 252.699219 234.800781 258.351562 237.648438 C 262.5 239.75 265.601562 240.300781 280.648438 241.550781 C 283.851562 241.800781 289.148438 242.199219 292.398438 242.5 C 295.601562 242.75 301.050781 243.199219 304.5 243.449219 C 310.851562 243.949219 314.75 244.601562 315.398438 245.25 C 315.601562 245.398438 315.851562 248.601562 316 252.25 C 316.199219 257.851562 316.398438 259.050781 317.199219 259.949219 C 317.75 260.550781 318.648438 261 319.199219 261 C 320.550781 261 325.699219 258 328.851562 255.351562 C 330.148438 254.25 333.199219 252.050781 335.601562 250.449219 C 338 248.800781 340.351562 246.949219 340.800781 246.300781 C 341.550781 245.050781 342.101562 242.398438 343.050781 234.5 C 344.148438 225.449219 344.5 222.648438 345 219.25 C 345.601562 215.101562 346.25 210.050781 347 203.351562 C 347.648438 197.398438 347.148438 194.101562 344.949219 189.601562 C 343.050781 185.75 337.949219 180.148438 334.648438 178.398438 C 329.101562 175.398438 330.75 175.449219 283.300781 175.601562 C 241 175.75 239.898438 175.75 239.199219 176.699219 C 238.300781 177.949219 238.300781 179.699219 239.199219 185.300781 C 239.601562 187.75 240.648438 194.351562 241.5 200 C 243.699219 214.300781 243.75 214.550781 247.699219 215.75 C 249.898438 216.398438 247.300781 217.25 242.101562 217.601562 C 239.148438 217.800781 234.148438 218.199219 231 218.5 C 224.199219 219.101562 216.148438 219.800781 207.5 220.5 C 201.648438 220.949219 199.449219 221.199219 196.601562 221.800781 C 194.851562 222.148438 194 224.75 194 229.851562 C 194 235.601562 193.699219 236.101562 190.898438 234.601562 C 188.050781 233.148438 184.050781 230.050781 182.898438 228.5 C 181.949219 227.199219 181.398438 224.75 180.5 217.5 C 180.199219 215.148438 179.75 211.800781 179.5 210 C 179.25 208.199219 178.800781 204.699219 178.5 202.25 C 178.199219 199.75 177.75 196.300781 177.5 194.5 C 177.25 192.699219 176.800781 189.351562 176.5 187 C 175.5 179.449219 175.101562 176.351562 174.5 172.449219 C 173 163 175.199219 155.898438 181.449219 149.851562 C 185.050781 146.398438 187 145.199219 192 143.550781 L 195.25 142.5 L 251 142.601562 L 306.75 142.75 L 306.898438 145.398438 C 307 146.851562 306.25 152.800781 305.300781 158.648438 C 304.300781 164.449219 303.5 169.75 303.5 170.351562 C 303.5 172.5 305.148438 173.5 308.648438 173.5 C 313.300781 173.5 313.898438 172.601562 315.25 163.898438 C 315.699219 161.050781 316.851562 154 317.800781 148.25 C 319.800781 136 319.851562 134.851562 318.5 133.5 C 317.5 132.5 316.851562 132.5 255.648438 132.550781 C 196.199219 132.601562 193.601562 132.601562 190 133.550781 Z M 317.300781 135.851562 C 317.050781 137.101562 316.050781 143.199219 313 163 C 311.449219 173 311.949219 172 308.5 172 C 306.851562 172 305.5 171.851562 305.5 171.601562 C 305.5 171.398438 306.648438 164.398438 308 156 C 309.351562 147.601562 310.25 140.550781 310.050781 140.351562 C 309.851562 140.148438 283.699219 140.050781 251.949219 140.101562 C 198.949219 140.25 194 140.351562 191.351562 141.148438 C 185.300781 142.949219 178.601562 148.050781 175.300781 153.351562 C 173.449219 156.398438 171.5 162.5 171.5 165.398438 C 171.5 166.800781 172.050781 172.148438 172.75 177.300781 C 174.300781 188.898438 175.648438 198.898438 176.949219 208.75 C 177.5 212.851562 178.351562 219.25 178.800781 222.898438 L 179.699219 229.601562 L 184.75 233.199219 C 187.5 235.199219 191.101562 237.75 192.75 238.898438 L 195.75 241 L 196.101562 232.449219 C 196.300781 227.75 196.550781 223.800781 196.699219 223.648438 C 197.050781 223.300781 203.050781 222.648438 211.898438 222 C 215.949219 221.699219 221.398438 221.25 224 221 C 228.550781 220.550781 240 219.550781 265.550781 217.5 C 272 217 278.800781 216.199219 280.648438 215.800781 C 286.851562 214.351562 292.398438 210.851562 296.300781 205.898438 C 299.601562 201.699219 300.949219 198.199219 302.800781 189.101562 C 303 188.148438 303.300781 188 305.699219 188 C 307.148438 188 308.449219 188.101562 308.601562 188.25 C 309.050781 188.699219 307.5 196.601562 306.25 200.148438 C 303.050781 209.449219 295.800781 216.699219 286.050781 220.398438 C 282.148438 221.898438 278.351562 222.5 266.5 223.449219 C 253.449219 224.550781 235.351562 226.050781 224.5 227 C 218.300781 227.550781 211.101562 228.101562 208.5 228.300781 C 205.898438 228.5 203.351562 228.851562 202.898438 229.101562 C 202.101562 229.5 202 230.601562 202 241 C 202 247.351562 201.898438 252.5 201.75 252.5 C 201.601562 252.5 200.148438 251.550781 198.601562 250.398438 C 192.300781 245.800781 190.449219 244.449219 182.449219 238.800781 C 175.148438 233.699219 174.050781 232.75 173.800781 231.351562 C 173.648438 230.449219 172.949219 225.25 172.25 219.75 C 171.550781 214.25 170.648438 207.398438 170.25 204.5 C 169.851562 201.601562 168.949219 194.75 168.25 189.25 C 167.550781 183.75 166.648438 176.949219 166.25 174.199219 C 164.851562 164.550781 165.449219 160 168.949219 152.75 C 173.199219 144.148438 181.898438 137.25 191.101562 135.25 C 193.648438 134.699219 205.75 134.550781 255.898438 134.550781 L 317.601562 134.5 Z M 325.75 177.5 C 330 178.199219 334.601562 180.601562 337.949219 183.949219 C 341.398438 187.351562 343.25 190.398438 344.351562 194.699219 C 345.101562 197.550781 345.148438 198.550781 344.601562 203.601562 C 343.449219 213.851562 339.398438 243.148438 339 244.25 C 338.398438 245.800781 318.898438 259.648438 318.398438 258.851562 C 318.199219 258.5 318 254.699219 318 250.351562 L 318 242.5 L 316.648438 242.5 C 315.851562 242.449219 312.898438 242.25 310 242 C 307.101562 241.699219 297.898438 240.949219 289.5 240.25 C 266 238.300781 264.75 238.148438 261.050781 236.449219 C 257.449219 234.800781 252.5 231.25 252.5 230.25 C 252.5 229.851562 253.648438 229.550781 255.800781 229.351562 C 258.648438 229.148438 259.5 229.300781 262.148438 230.5 C 266.351562 232.351562 265.398438 232.25 302 235.25 C 306.800781 235.648438 313.75 236.25 317.398438 236.550781 L 324 237.199219 L 324 242.601562 C 324 245.550781 324.148438 248 324.300781 248 C 324.449219 248 326.5 246.699219 328.800781 245.101562 C 333.648438 241.800781 333.5 242.050781 334.699219 232.75 C 335.101562 229.449219 336.300781 220.800781 337.300781 213.5 C 339.25 199.199219 339.25 196.898438 337.398438 193.050781 C 335.800781 189.75 331.898438 185.800781 328.851562 184.449219 L 326.25 183.25 L 286.601562 183.101562 C 248.800781 183 246.949219 183 247.199219 183.851562 C 247.648438 185.351562 252 211.648438 252 213.050781 C 252 213.398438 246.550781 214.199219 246.199219 213.898438 C 246.050781 213.699219 241.351562 184.550781 240.699219 179.601562 L 240.351562 177 L 281.550781 177 C 306.101562 177 323.949219 177.199219 325.75 177.5 Z M 323.601562 185.199219 C 328.5 186.398438 333 189.5 334.699219 192.898438 C 336.550781 196.601562 337.050781 199 336.550781 202.050781 C 336.300781 203.550781 335.851562 206.75 335.5 209.25 C 335 213.449219 334.601562 216.398438 333.5 224.5 C 333.25 226.300781 332.800781 229.75 332.449219 232.25 C 331.648438 238.75 331.148438 240.398438 329.75 241.300781 C 328.25 242.300781 327 241.898438 327 240.5 C 327 239.949219 326.699219 238.699219 326.300781 237.75 C 325.351562 235.550781 323.648438 235.050781 315.5 234.449219 C 312.050781 234.199219 306.601562 233.75 303.398438 233.5 C 300.148438 233.199219 294.851562 232.800781 291.648438 232.5 C 269.199219 230.648438 267.148438 230.351562 263.851562 228.851562 C 262.148438 228.101562 261 227.25 261 226.800781 C 261 226.351562 261.050781 226 261.148438 225.949219 C 261.199219 225.898438 263.75 225.699219 266.75 225.449219 C 280.648438 224.398438 285 223.648438 289.800781 221.550781 C 295.398438 219.050781 302.199219 212.898438 305.601562 207.25 C 309.398438 200.949219 311.648438 190.550781 309.800781 187.75 C 309.050781 186.601562 308.648438 186.5 305.5 186.5 C 301.300781 186.5 300.949219 186.898438 299.800781 192.449219 C 298.25 199.898438 294.648438 205.851562 289.398438 209.5 C 283.449219 213.648438 280.75 214.398438 266.5 215.5 C 263.351562 215.75 259.300781 216.101562 257.5 216.25 C 253.351562 216.601562 252.898438 216.351562 253.648438 213.648438 C 254.199219 211.449219 254.050781 209.898438 251.699219 195.550781 C 250.351562 187.351562 250.25 185.199219 251.148438 184.851562 C 251.449219 184.699219 267.300781 184.550781 286.25 184.550781 C 313.800781 184.550781 321.351562 184.648438 323.601562 185.199219 Z M 323.601562 185.199219 "/>
<path style=" stroke:none;fill-rule:nonzero;fill:rgb(0%,0%,0%);fill-opacity:1;" d="M 103.898438 274.449219 C 100.398438 275.601562 97.398438 277.898438 95.75 280.699219 C 93.199219 285.101562 92.25 296.199219 93.75 304.25 C 95.148438 311.550781 98.550781 315.25 105.300781 316.75 C 114 318.699219 122 315.800781 125.601562 309.449219 C 126.199219 308.398438 126.851562 307.5 127.050781 307.5 C 127.601562 307.5 128 308.898438 128 310.699219 C 128 313 128.949219 315.449219 130 316 C 131.199219 316.648438 137.800781 316.648438 139 316 C 140.398438 315.25 141 312.75 141 307.398438 C 141 301 141.25 300.5 144.75 300.5 C 148.699219 300.5 149 301 149 307.199219 C 149 312.75 149.550781 315.25 151 316 C 151.5 316.300781 153.648438 316.5 155.800781 316.5 C 159.550781 316.5 159.699219 316.449219 161.199219 314.800781 L 162.699219 313.050781 L 164.050781 314.648438 L 165.398438 316.25 L 185.300781 316.351562 C 201.050781 316.398438 205.449219 316.300781 206.25 315.75 C 206.851562 315.398438 207.699219 314.199219 208.25 313.050781 C 209.300781 310.648438 209.949219 310.398438 214.75 310.601562 C 218.101562 310.75 218.25 310.800781 219.300781 312.5 C 221.851562 316.550781 222 316.601562 227.648438 316.300781 C 234.199219 315.949219 233.601562 315.949219 238.101562 316.300781 C 240.25 316.449219 242.601562 316.449219 243.300781 316.300781 C 245.199219 315.800781 246 313.351562 246 307.851562 C 246 304.898438 246.25 302.898438 246.648438 302.398438 C 247.101562 301.75 248.449219 301.550781 252.5 301.398438 C 256.648438 301.25 258.199219 300.949219 259.800781 300.101562 C 268.199219 295.75 269.398438 282.898438 261.949219 277 C 258.550781 274.300781 254.5 273.5 244.5 273.5 C 235.550781 273.5 234.5 273.898438 233.5 277.398438 C 233.25 278.449219 233 284.949219 232.949219 292 C 232.949219 299 232.75 305.199219 232.550781 305.75 C 232.199219 306.648438 232.050781 306.550781 231.25 305 C 230.75 304.050781 228.351562 297.300781 225.949219 290.050781 C 220.5 273.648438 220.601562 273.75 214.050781 273.75 C 207.25 273.75 207.550781 273.351562 202.648438 288.300781 C 200.449219 295.148438 198.25 302 197.800781 303.5 C 197.398438 305 196.75 306.648438 196.398438 307.148438 C 195.800781 308 195.601562 308 193.898438 307.25 C 192.5 306.699219 190.199219 306.5 184.800781 306.5 C 176.851562 306.5 176 306.199219 176 303.5 C 176 301 177.050781 300.5 182.050781 300.5 C 185.800781 300.5 186.648438 300.351562 187.449219 299.550781 C 189.648438 297.351562 189.050781 291.449219 186.5 290.148438 C 185.800781 289.800781 183.5 289.5 181.398438 289.5 C 177.398438 289.5 176 288.851562 176 287.101562 C 176.050781 284.898438 176.601562 284.75 185.300781 284.5 C 193.25 284.25 193.648438 284.199219 194.550781 283.050781 C 195.199219 282.25 195.5 281.101562 195.5 279.449219 C 195.5 277.449219 195.25 276.699219 194.050781 275.398438 L 192.601562 273.75 L 166.550781 273.75 L 164.5 275.75 C 162.75 277.449219 162.351562 277.648438 162 276.949219 C 160.5 274.300781 159.648438 273.800781 156.449219 273.601562 C 150.25 273.25 149 274.800781 149 282.949219 C 149 288.898438 148.648438 289.5 145 289.5 C 141.351562 289.5 141 288.898438 141 282.949219 C 141 274.800781 139.75 273.25 133.550781 273.601562 C 129.949219 273.851562 128.75 274.800781 128.25 277.800781 C 128.101562 278.75 127.851562 280.351562 127.699219 281.351562 L 127.398438 283.25 L 126.101562 281.5 C 123.25 277.699219 120.449219 275.550781 117.148438 274.5 C 113.050781 273.25 107.75 273.25 103.898438 274.449219 Z M 115.449219 276.050781 C 118.101562 276.851562 121 279 122.699219 281.398438 C 123.898438 283.101562 124.199219 284.050781 124.25 286.148438 L 124.25 288.75 L 120.648438 288.898438 C 117.25 289.050781 117 289 117 288 C 117 287.398438 116.648438 286.300781 116.25 285.449219 C 113.949219 281.050781 106.898438 280.851562 104.699219 285.101562 C 103.699219 287.050781 103.25 294.648438 103.75 300.699219 C 104.050781 304.5 104.300781 305.300781 105.449219 306.648438 C 106.648438 307.949219 107.25 308.199219 109.851562 308.398438 C 112.648438 308.601562 112.949219 308.5 114.601562 307.050781 C 115.699219 306.101562 116.601562 304.75 116.851562 303.601562 L 117.300781 301.75 L 120.800781 301.898438 C 122.699219 302 124.449219 302.25 124.699219 302.5 C 125.550781 303.300781 123.5 308.5 121.449219 310.75 C 118.398438 314.050781 115.601562 315.199219 110.5 315.199219 C 106.800781 315.25 105.851562 315.050781 103.398438 313.851562 C 100.101562 312.199219 97.851562 309.75 96.75 306.550781 C 95.699219 303.449219 95.699219 287.75 96.75 284.148438 C 97.851562 280.5 101.300781 277.25 105.5 275.949219 C 107.398438 275.398438 113.398438 275.449219 115.449219 276.050781 Z M 256.949219 276.601562 C 259.199219 277.300781 262.449219 280.300781 263.550781 282.75 C 264.699219 285.25 264.75 289.851562 263.75 292.398438 C 262.601562 295.101562 259.648438 297.851562 257 298.75 C 255.601562 299.199219 252.5 299.550781 249.199219 299.648438 L 243.75 299.75 L 243.601562 306.75 C 243.550781 310.601562 243.351562 314.050781 243.25 314.398438 C 243.101562 314.851562 242.050781 315 239.648438 314.898438 L 236.25 314.75 L 236.101562 295.398438 L 236 276.050781 L 241.851562 275.898438 C 249.351562 275.699219 254.800781 275.949219 256.949219 276.601562 Z M 138.601562 283.851562 L 138.75 291.75 L 151.25 291.75 L 151.398438 283.851562 L 151.550781 275.949219 L 155.398438 276.101562 L 159.25 276.25 L 159.398438 292.5 C 159.449219 301.449219 159.351562 310.101562 159.148438 311.75 L 158.75 314.75 L 151.75 314.75 L 151.601562 306.601562 L 151.5 298.5 L 138.5 298.5 L 138.398438 306.601562 L 138.25 314.75 L 135 314.898438 C 132.398438 315 131.648438 314.898438 131.148438 314.199219 C 130.648438 313.5 130.5 309.148438 130.5 295.449219 C 130.5 285.601562 130.648438 277.25 130.800781 276.800781 C 131.050781 276.148438 131.898438 276 134.800781 276 L 138.449219 276 Z M 192.75 279.25 L 192.75 282.25 L 183.351562 282.5 C 178.199219 282.648438 174 282.898438 174 283.101562 C 174 283.351562 174 285.398438 174 287.75 L 174 292 L 186.5 292 L 186.5 298.5 L 174.101562 298.5 L 173.898438 302.601562 C 173.800781 304.898438 173.800781 307.050781 173.898438 307.351562 C 174.050781 307.800781 176.601562 308 183.398438 308.101562 L 192.75 308.25 L 192.75 314.75 L 166.25 314.75 L 166.101562 295.351562 L 166 276 L 179.351562 276.101562 L 192.75 276.25 Z M 219.898438 279.5 C 221.398438 283.699219 228.25 305.050781 229.800781 310.25 C 230.449219 312.449219 230.75 314.449219 230.550781 314.648438 C 230.351562 314.851562 228.601562 315 226.699219 314.898438 L 223.300781 314.75 L 222.351562 312.25 C 220.898438 308.351562 221.148438 308.449219 213.601562 308.601562 L 206.851562 308.75 L 204.75 314.75 L 201.300781 314.898438 C 199.398438 315 197.648438 314.851562 197.398438 314.601562 C 196.851562 314.050781 197.898438 310.5 204.800781 289.101562 L 209.050781 275.949219 L 213.898438 276.101562 L 218.75 276.25 Z M 113 285.851562 C 113.601562 286.648438 114.550781 288.050781 115.148438 289 C 115.800781 289.949219 116.898438 290.949219 117.648438 291.199219 C 119.550781 291.898438 124.351562 290.800781 125.851562 289.398438 C 127.601562 287.75 128 288.75 128 295.25 C 128 301.800781 127.601562 302.75 125.75 301 C 124.75 300.050781 123.800781 299.75 121.300781 299.601562 C 119.550781 299.5 117.699219 299.648438 117.101562 299.949219 C 116.550781 300.25 115.398438 301.699219 114.550781 303.25 C 112.898438 306.199219 111.398438 307 109.101562 306.199219 C 106.699219 305.351562 106 303 106 295.648438 C 106 292.050781 106.199219 288.5 106.5 287.800781 C 107.75 284.398438 111.101562 283.449219 113 285.851562 Z M 113 285.851562 "/>
<path style=" stroke:none;fill-rule:nonzero;fill:rgb(0%,0%,0%);fill-opacity:1;" d="M 243.898438 282.800781 C 243.800781 283.050781 243.800781 285.550781 243.898438 288.351562 L 244.101562 293.5 L 248.300781 293.5 C 253.398438 293.5 255.25 292.699219 256.300781 290.148438 C 257.199219 288.050781 256.898438 286.25 255.300781 284.25 C 254.148438 282.851562 253.949219 282.800781 249.148438 282.601562 C 246.398438 282.5 244.050781 282.601562 243.898438 282.800781 Z M 252.949219 285.800781 C 253.550781 286.550781 254 287.5 254 288 C 254 288.5 253.550781 289.449219 252.949219 290.199219 C 252.101562 291.300781 251.550781 291.5 249.5 291.5 C 246.699219 291.5 246 290.75 246 287.800781 C 246 285.449219 247.101562 284.5 249.75 284.5 C 251.5 284.5 252.148438 284.75 252.949219 285.800781 Z M 252.949219 285.800781 "/>
<path style=" stroke:none;fill-rule:nonzero;fill:rgb(0%,0%,0%);fill-opacity:1;" d="M 213.5 286.050781 C 212.851562 287.601562 209 301.050781 209 301.851562 C 209 302.351562 210.300781 302.5 214 302.5 C 217.101562 302.5 219 302.300781 219 302 C 219 301.398438 214.449219 285.351562 214.199219 285.050781 C 214.101562 284.949219 213.800781 285.398438 213.5 286.050781 Z M 215 297.800781 C 215.601562 299.300781 215.300781 300 214 300 C 213.5 300 212.949219 299.800781 212.800781 299.550781 C 212.398438 298.898438 213.351562 296.5 214 296.5 C 214.300781 296.5 214.75 297.101562 215 297.800781 Z M 215 297.800781 "/>
<path style=" stroke:none;fill-rule:nonzero;fill:rgb(0%,0%,0%);fill-opacity:1;" d="M 287.898438 274.449219 C 284.398438 275.601562 281.398438 277.898438 279.75 280.699219 C 277.199219 285.101562 276.25 296.199219 277.75 304.25 C 279.148438 311.449219 282.550781 315.25 289 316.699219 C 293.648438 317.75 296 317.699219 300.101562 316.550781 C 304.699219 315.300781 307.601562 312.898438 310.550781 308 C 310.949219 307.351562 311.050781 307.351562 311.5 308 C 311.75 308.398438 312 309.550781 312 310.550781 C 312 313 312.898438 315.398438 314 316 C 315.199219 316.648438 321.800781 316.648438 323 316 C 324.398438 315.25 325 312.75 325 307.398438 C 325 300.898438 325.25 300.5 329 300.5 C 332.75 300.5 333 300.898438 333 307.398438 C 333 312.75 333.601562 315.25 335 316 C 336.601562 316.851562 342.898438 316.601562 344.550781 315.648438 C 345.898438 314.851562 346.101562 314.851562 347.449219 315.648438 C 348.5 316.25 350 316.5 352.75 316.5 C 356.300781 316.5 356.699219 316.398438 357.898438 315.101562 C 358.648438 314.351562 359.648438 313 360.101562 312.101562 C 360.949219 310.5 361 310.5 364.75 310.5 C 369.300781 310.5 370.148438 310.898438 371.5 313.550781 C 372.101562 314.648438 373.101562 315.75 373.800781 316 C 375.601562 316.699219 381 316.601562 382.5 315.851562 C 385.050781 314.550781 384.800781 313.199219 376.851562 289 C 372.851562 276.648438 371.949219 274.648438 370.199219 274 C 368.398438 273.300781 362 273.398438 360.5 274.148438 C 358.699219 275.050781 357.101562 277.699219 355.949219 281.699219 C 353.851562 288.898438 348.851562 303.800781 347.851562 305.75 C 346.949219 307.5 346.800781 307.648438 346.449219 306.75 C 346.25 306.199219 346.050781 299.5 346.050781 291.851562 C 346 274.050781 345.800781 273.5 339.5 273.5 C 334.101562 273.5 333 275.148438 333 282.949219 C 333 288.898438 332.648438 289.5 329 289.5 C 325.351562 289.5 325 288.898438 325 282.949219 C 325 275.148438 323.898438 273.5 318.5 273.5 C 317.148438 273.5 315.5 273.699219 314.75 274 C 313.148438 274.601562 312 277.148438 312 280.101562 C 312 283.75 311.300781 284 309.5 281.101562 C 308.648438 279.699219 307.050781 277.800781 305.949219 276.949219 C 301.800781 273.648438 293.851562 272.550781 287.898438 274.449219 Z M 301.648438 277 C 305.851562 279.101562 308.5 283 308.5 287 L 308.5 289 L 304.75 289 C 301.199219 289 301 288.949219 301 287.851562 C 301 286.101562 299.101562 283.5 297.25 282.699219 C 293.699219 281.25 290.199219 282.25 288.699219 285.101562 C 287.648438 287.101562 287.25 293.648438 287.75 300.199219 C 288.050781 304.550781 288.25 305.25 289.5 306.648438 C 290.648438 307.949219 291.25 308.199219 293.851562 308.398438 C 296.648438 308.601562 296.949219 308.5 298.601562 307.050781 C 299.699219 306.101562 300.601562 304.75 300.851562 303.601562 L 301.300781 301.75 L 304.75 301.898438 C 306.699219 302 308.449219 302.25 308.648438 302.449219 C 309.550781 303.351562 307.5 308.5 305.449219 310.75 C 302.550781 313.851562 299.199219 315.199219 294.25 315.25 C 290.699219 315.25 289.898438 315.050781 287.148438 313.601562 C 281.101562 310.449219 280 307.699219 280 295.550781 C 280 285.199219 280.550781 282.648438 283.25 279.851562 C 286.550781 276.449219 289.25 275.5 295 275.648438 C 298.300781 275.75 299.800781 276.050781 301.648438 277 Z M 322.601562 283.851562 L 322.75 291.75 L 335.25 291.75 L 335.398438 283.851562 L 335.550781 276 L 342.949219 276 L 343.101562 281.601562 C 343.449219 292.351562 343.449219 307.25 343.101562 311 L 342.75 314.75 L 335.75 314.75 L 335.601562 306.601562 L 335.5 298.5 L 322.5 298.5 L 322.398438 306.601562 L 322.25 314.75 L 318.851562 314.898438 C 315.648438 315.050781 315.449219 315 315 313.75 C 314.449219 312.351562 314.300781 278.148438 314.800781 276.800781 C 315.050781 276.148438 315.898438 276 318.800781 276 L 322.449219 276 Z M 372.050781 282 C 378.449219 301.75 382 313.199219 382 314.050781 C 382 314.949219 381.699219 315.050781 378.398438 314.898438 C 374.449219 314.75 374.5 314.800781 372.800781 310.351562 L 372.050781 308.5 L 358.101562 308.5 L 357.199219 311.101562 C 356 314.898438 355.851562 315 351.851562 315 L 348.351562 315 L 348.699219 313.101562 C 349.050781 310.898438 358.300781 281.398438 359.949219 277.351562 L 360.5 275.949219 L 365.351562 276.101562 L 370.199219 276.25 Z M 297 285.851562 C 297.601562 286.648438 298.550781 288.050781 299.148438 289 C 299.800781 289.949219 300.898438 290.949219 301.648438 291.199219 C 303.550781 291.898438 308.351562 290.800781 309.851562 289.398438 C 311.601562 287.75 312 288.75 312 295.25 C 312 301.800781 311.601562 302.75 309.75 301 C 308.75 300.050781 307.800781 299.75 305.25 299.601562 C 301.5 299.351562 300 300.050781 298.699219 302.648438 C 296.75 306.449219 294.101562 307.601562 292 305.5 C 290.300781 303.800781 290 302.25 290 295.5 C 290 291.949219 290.199219 288.5 290.5 287.800781 C 291.75 284.398438 295.101562 283.449219 297 285.851562 Z M 297 285.851562 "/>
<path style=" stroke:none;fill-rule:nonzero;fill:rgb(0%,0%,0%);fill-opacity:1;" d="M 364.25 287.601562 C 361.601562 296.25 360 302.148438 360.148438 302.351562 C 360.300781 302.449219 362.648438 302.449219 365.398438 302.398438 L 370.398438 302.25 L 367.949219 293.800781 C 366.648438 289.148438 365.449219 285.25 365.300781 285.148438 C 365.148438 285 364.699219 286.101562 364.25 287.601562 Z M 366.199219 296.800781 C 366.851562 298.5 366.550781 300 365.5 300 C 364.25 300 363.800781 298.949219 364.199219 297.25 C 364.550781 295.851562 365.75 295.601562 366.199219 296.800781 Z M 366.199219 296.800781 "/>
<path style=" stroke:none;fill-rule:nonzero;fill:rgb(0%,0%,0%);fill-opacity:1;" d="M 385.5 274.148438 C 382.949219 275.449219 382.351562 281.351562 384.550781 283.550781 C 385.300781 284.300781 386.199219 284.5 389.25 284.5 C 392.398438 284.5 393.050781 284.648438 393.5 285.449219 C 393.800781 286.050781 394 291.398438 394 299.398438 C 394 312.75 394.300781 315.101562 396 316 C 397.199219 316.648438 403.800781 316.648438 405 316 C 406.699219 315.101562 407 312.75 407 299.25 C 407 289.550781 407.148438 286 407.648438 285.398438 C 408.050781 284.800781 409.300781 284.550781 411.949219 284.398438 C 415.050781 284.25 415.75 284.050781 416.550781 283.050781 C 418.550781 280.601562 417.148438 275.101562 414.199219 274 C 412.25 273.25 387.050781 273.351562 385.5 274.148438 Z M 414.75 279.25 L 414.75 282.25 L 404.25 282.75 L 403.75 314.75 L 396.75 314.75 L 396.449219 308.25 C 396.25 304.648438 396.101562 297.449219 396.050781 292.148438 L 396 282.550781 L 390.898438 282.398438 L 385.75 282.25 L 385.601562 279.800781 C 385.351562 275.699219 384.25 275.949219 400.351562 276.101562 L 414.75 276.25 Z M 414.75 279.25 "/>
</g>
</svg>
